<svg xmlns="http://www.w3.org/2000/svg" width="190.84000000000003" height="35" viewBox="0 0 190.84000000000003 35"><rect class="svg__rect" x="0" y="0" width="92.95" height="35" fill="#31C4F3"/><rect class="svg__rect" x="90.95" y="0" width="99.89000000000001" height="35" fill="#389AD5"/><path class="svg__text" d="M15.70 22L14.22 22L14.22 13.47L15.70 13.47L19.51 19.54L19.51 13.47L20.98 13.47L20.98 22L19.50 22L15.70 15.95L15.70 22ZM25.46 18.00L25.46 18.00L25.46 17.52Q25.46 16.28 25.90 15.32Q26.34 14.37 27.15 13.86Q27.95 13.35 28.99 13.35Q30.04 13.35 30.84 13.85Q31.65 14.35 32.09 15.29Q32.53 16.23 32.53 17.48L32.53 17.48L32.53 17.96Q32.53 19.21 32.10 20.16Q31.67 21.10 30.86 21.61Q30.06 22.12 29.01 22.12L29.01 22.12Q27.97 22.12 27.16 21.61Q26.35 21.10 25.90 20.17Q25.46 19.23 25.46 18.00ZM26.94 17.46L26.94 17.96Q26.94 19.36 27.49 20.13Q28.03 20.90 29.01 20.90L29.01 20.90Q29.99 20.90 30.52 20.15Q31.05 19.40 31.05 17.96L31.05 17.96L31.05 17.51Q31.05 16.09 30.52 15.34Q29.98 14.58 28.99 14.58L28.99 14.58Q28.03 14.58 27.49 15.33Q26.95 16.09 26.94 17.46L26.94 17.46ZM39.45 22L37.00 22L37.00 13.47L39.52 13.47Q40.65 13.47 41.52 13.97Q42.40 14.48 42.88 15.40Q43.36 16.33 43.36 17.52L43.36 17.52L43.36 17.95Q43.36 19.16 42.88 20.08Q42.39 21.00 41.50 21.50Q40.61 22 39.45 22L39.45 22ZM38.48 14.66L38.48 20.82L39.45 20.82Q40.61 20.82 41.24 20.09Q41.86 19.36 41.87 17.99L41.87 17.99L41.87 17.52Q41.87 16.13 41.27 15.40Q40.67 14.66 39.52 14.66L39.52 14.66L38.48 14.66ZM53.40 22L47.83 22L47.83 13.47L53.36 13.47L53.36 14.66L49.31 14.66L49.31 17.02L52.81 17.02L52.81 18.19L49.31 18.19L49.31 20.82L53.40 20.82L53.40 22ZM62.97 19.57L62.97 19.57L64.45 19.57Q64.45 20.25 64.79 20.59Q65.12 20.93 65.76 20.93L65.76 20.93Q66.36 20.93 66.71 20.54Q67.07 20.14 67.07 19.45L67.07 19.45L67.07 13.47L68.55 13.47L68.55 19.45Q68.55 20.68 67.78 21.40Q67.02 22.12 65.76 22.12L65.76 22.12Q64.43 22.12 63.70 21.44Q62.97 20.77 62.97 19.57ZM72.79 19.42L72.79 19.42L74.28 19.42Q74.28 20.15 74.76 20.55Q75.24 20.95 76.13 20.95L76.13 20.95Q76.91 20.95 77.30 20.63Q77.69 20.32 77.69 19.80L77.69 19.80Q77.69 19.24 77.29 18.94Q76.89 18.63 75.86 18.32Q74.83 18.01 74.22 17.63L74.22 17.63Q73.06 16.90 73.06 15.72L73.06 15.72Q73.06 14.69 73.90 14.02Q74.74 13.35 76.08 13.35L76.08 13.35Q76.97 13.35 77.67 13.68Q78.37 14.01 78.76 14.61Q79.16 15.22 79.16 15.96L79.16 15.96L77.69 15.96Q77.69 15.29 77.27 14.91Q76.85 14.54 76.07 14.54L76.07 14.54Q75.34 14.54 74.94 14.85Q74.54 15.16 74.54 15.71L74.54 15.71Q74.54 16.18 74.97 16.50Q75.41 16.81 76.40 17.10Q77.40 17.40 78.00 17.78Q78.61 18.16 78.89 18.65Q79.17 19.13 79.17 19.79L79.17 19.79Q79.17 20.86 78.35 21.49Q77.53 22.12 76.13 22.12L76.13 22.12Q75.21 22.12 74.43 21.77Q73.65 21.43 73.22 20.83Q72.79 20.22 72.79 19.42Z" fill="#FFFFFF"/><path class="svg__text" d="M107.72 22L104.13 13.60L106.70 13.60L108.98 19.07L111.31 13.60L113.66 13.60L110.06 22L107.72 22ZM118.61 15.44L117.04 15.44L117.04 13.60L120.98 13.60L120.98 22L118.61 22L118.61 15.44ZM125.67 19.53L125.67 19.53Q125.67 18.89 125.99 18.40Q126.30 17.91 126.88 17.57L126.88 17.57Q126.44 17.27 126.21 16.84Q125.98 16.41 125.98 15.88L125.98 15.88Q125.98 15.15 126.40 14.59Q126.82 14.03 127.58 13.73Q128.34 13.43 129.33 13.43L129.33 13.43Q130.31 13.43 131.07 13.73Q131.83 14.03 132.25 14.59Q132.67 15.15 132.67 15.88L132.67 15.88Q132.67 16.41 132.44 16.84Q132.21 17.27 131.77 17.57L131.77 17.57Q132.35 17.91 132.66 18.40Q132.98 18.89 132.98 19.53L132.98 19.53Q132.98 20.32 132.52 20.92Q132.06 21.52 131.23 21.84Q130.40 22.17 129.33 22.17L129.33 22.17Q128.25 22.17 127.42 21.84Q126.59 21.52 126.13 20.92Q125.67 20.32 125.67 19.53ZM128.07 19.46L128.07 19.46Q128.07 19.94 128.41 20.22Q128.75 20.50 129.33 20.50L129.33 20.50Q129.90 20.50 130.24 20.22Q130.59 19.94 130.59 19.46L130.59 19.46Q130.59 18.98 130.24 18.70Q129.90 18.41 129.33 18.41L129.33 18.41Q128.75 18.41 128.41 18.70Q128.07 18.98 128.07 19.46ZM128.33 15.99L128.33 15.99Q128.33 16.40 128.60 16.63Q128.87 16.86 129.33 16.86L129.33 16.86Q129.78 16.86 130.06 16.63Q130.33 16.40 130.33 15.99L130.33 15.99Q130.33 15.57 130.06 15.33Q129.78 15.10 129.33 15.10L129.33 15.10Q128.88 15.10 128.60 15.33Q128.33 15.57 128.33 15.99ZM137.15 20.75L137.15 20.75Q137.15 20.15 137.54 19.78Q137.93 19.41 138.52 19.41L138.52 19.41Q139.12 19.41 139.51 19.78Q139.89 20.15 139.89 20.75L139.89 20.75Q139.89 21.34 139.50 21.72Q139.11 22.11 138.52 22.11L138.52 22.11Q137.94 22.11 137.55 21.72Q137.15 21.34 137.15 20.75ZM145.34 15.44L143.78 15.44L143.78 13.60L147.72 13.60L147.72 22L145.34 22L145.34 15.44ZM152.46 18.03L152.46 18.03Q152.46 16.59 153.02 15.55Q153.58 14.51 154.59 13.97Q155.59 13.43 156.92 13.43L156.92 13.43Q157.64 13.43 158.29 13.59Q158.94 13.74 159.40 14.04L159.40 14.04L158.53 15.75Q157.92 15.31 156.99 15.31L156.99 15.31Q156.07 15.31 155.51 15.82Q154.95 16.32 154.86 17.27L154.86 17.27Q155.58 16.65 156.76 16.65L156.76 16.65Q157.55 16.65 158.21 16.98Q158.87 17.31 159.26 17.91Q159.65 18.52 159.65 19.30L159.65 19.30Q159.65 20.15 159.21 20.80Q158.77 21.46 158.02 21.82Q157.27 22.17 156.35 22.17L156.35 22.17Q154.55 22.17 153.51 21.10Q152.46 20.03 152.46 18.03ZM155.03 19.42L155.03 19.42Q155.03 19.89 155.35 20.18Q155.66 20.48 156.21 20.48L156.21 20.48Q156.71 20.48 157.03 20.19Q157.34 19.90 157.34 19.41L157.34 19.41Q157.34 18.93 157.03 18.64Q156.71 18.35 156.20 18.35L156.20 18.35Q155.68 18.35 155.36 18.65Q155.03 18.94 155.03 19.42ZM163.65 20.75L163.65 20.75Q163.65 20.15 164.04 19.78Q164.43 19.41 165.02 19.41L165.02 19.41Q165.62 19.41 166.00 19.78Q166.39 20.15 166.39 20.75L166.39 20.75Q166.39 21.34 166.00 21.72Q165.61 22.11 165.02 22.11L165.02 22.11Q164.44 22.11 164.05 21.72Q163.65 21.34 163.65 20.75ZM170.62 17.80L170.62 17.80Q170.62 16.45 171.09 15.46Q171.56 14.46 172.40 13.95Q173.24 13.43 174.32 13.43L174.32 13.43Q175.39 13.43 176.23 13.95Q177.07 14.46 177.54 15.46Q178.02 16.45 178.02 17.80L178.02 17.80Q178.02 19.15 177.54 20.15Q177.07 21.14 176.23 21.65Q175.39 22.17 174.32 22.17L174.32 22.17Q173.24 22.17 172.40 21.65Q171.56 21.14 171.09 20.15Q170.62 19.16 170.62 17.80ZM173.00 17.80L173.00 17.80Q173.00 19.06 173.36 19.64Q173.71 20.22 174.32 20.22L174.32 20.22Q174.92 20.22 175.28 19.64Q175.63 19.06 175.63 17.80L175.63 17.80Q175.63 16.54 175.28 15.96Q174.92 15.38 174.32 15.38L174.32 15.38Q173.71 15.38 173.36 15.96Q173.00 16.54 173.00 17.80Z" fill="#FFFFFF" x="103.95"/></svg>